<?xml version="1.0" encoding="utf-8"?>
<!-- Generator: Adobe Illustrator 19.2.1, SVG Export Plug-In . SVG Version: 6.00 Build 0)  -->
<svg version="1.2" baseProfile="tiny"
	 id="capa1" xmlns:cc="http://creativecommons.org/ns#" xmlns:dc="http://purl.org/dc/elements/1.1/" xmlns:rdf="http://www.w3.org/1999/02/22-rdf-syntax-ns#" xmlns:svg="http://www.w3.org/2000/svg"
	 xmlns="http://www.w3.org/2000/svg" xmlns:xlink="http://www.w3.org/1999/xlink" height="19.5mm" width="33.85mm" viewBox="0 0 95.1 54.8"
	 xml:space="preserve">
<g id="copper0">
	<g id="copper1">
		<rect id="connector45pin" x="1.2" y="44.7" fill="#F7BF13" width="6.8" height="2.4"/>
		<rect id="connector44pin" x="1.2" y="41" fill="#F7BF13" width="6.8" height="2.4"/>
		<rect id="connector43pin" x="1.2" y="37.5" fill="#F7BF13" width="6.8" height="2.4"/>
		<rect id="connector42pin" x="1.2" y="21" fill="#F7BF13" width="6.8" height="2.4"/>
		<rect id="connector41pin" x="1.2" y="17.4" fill="#F7BF13" width="6.8" height="2.4"/>
		<rect id="connector40pin" x="1.2" y="13.8" fill="#F7BF13" width="6.8" height="2.4"/>
		<rect id="connector39pin" x="17.5" y="1" fill="#F7BF13" width="2.4" height="7.7"/>
		<rect id="connector38pin" x="21.1" y="1" fill="#F7BF13" width="2.4" height="7.7"/>
		<rect id="connector37pin" x="24.7" y="1" fill="#F7BF13" width="2.4" height="7.7"/>
		<rect id="connector36pin" x="28.3" y="1" fill="#F7BF13" width="2.4" height="7.7"/>
		<rect id="connector35pin" x="31.9" y="1" fill="#F7BF13" width="2.4" height="7.7"/>
		<rect id="connector34pin" x="35.5" y="1" fill="#F7BF13" width="2.4" height="7.7"/>
		<rect id="connector33pin" x="39.1" y="1" fill="#F7BF13" width="2.4" height="7.7"/>
		<rect id="connector32pin" x="42.7" y="1" fill="#F7BF13" width="2.4" height="7.7"/>
		<rect id="connector31pin" x="46.3" y="1" fill="#F7BF13" width="2.4" height="7.7"/>
		<rect id="connector30pin" x="49.9" y="1" fill="#F7BF13" width="2.4" height="7.7"/>
		<rect id="connector29pin" x="53.5" y="1" fill="#F7BF13" width="2.4" height="7.7"/>
		<rect id="connector28pin" x="57.1" y="1" fill="#F7BF13" width="2.4" height="7.7"/>
		<rect id="connector27pin" x="60.7" y="1" fill="#F7BF13" width="2.4" height="7.7"/>
		<rect id="connector26pin" x="64.3" y="1" fill="#F7BF13" width="2.4" height="7.7"/>
		<rect id="connector25pin" x="67.9" y="1" fill="#F7BF13" width="2.4" height="7.7"/>
		<rect id="connector24pin" x="71.5" y="1" fill="#F7BF13" width="2.4" height="7.7"/>
		<rect id="connector23pin" x="75.1" y="1" fill="#F7BF13" width="2.4" height="7.7"/>
		<rect id="connector22pin" x="78.7" y="1" fill="#F7BF13" width="2.4" height="7.7"/>
		<rect id="connector21pin" x="82.3" y="1" fill="#F7BF13" width="2.4" height="7.7"/>
		<rect id="connector20pin" x="85.9" y="46" fill="#F7BF13" width="2.4" height="7.7"/>
		<rect id="connector19pin" x="82.3" y="46" fill="#F7BF13" width="2.4" height="7.7"/>
		<rect id="connector18pin" x="78.7" y="46" fill="#F7BF13" width="2.4" height="7.7"/>
		<rect id="connector17pin" x="75.1" y="46" fill="#F7BF13" width="2.4" height="7.7"/>
		<rect id="connector16pin" x="71.5" y="46" fill="#F7BF13" width="2.4" height="7.7"/>
		<rect id="connector15pin" x="67.9" y="46" fill="#F7BF13" width="2.4" height="7.7"/>
		<rect id="connector14pin" x="64.3" y="46" fill="#F7BF13" width="2.4" height="7.7"/>
		<rect id="connector13pin" x="60.7" y="46" fill="#F7BF13" width="2.4" height="7.7"/>
		<rect id="connector12pin" x="57.1" y="46" fill="#F7BF13" width="2.4" height="7.7"/>
		<rect id="connector11pin" x="53.5" y="46" fill="#F7BF13" width="2.4" height="7.7"/>
		<rect id="connector10pin" x="49.9" y="46" fill="#F7BF13" width="2.4" height="7.7"/>
		<rect id="connector8pin" x="42.7" y="46" fill="#F7BF13" width="2.4" height="7.7"/>
		<rect id="connector9pin" x="46.3" y="46" fill="#F7BF13" width="2.4" height="7.7"/>
		<rect id="connector7pin" x="39.1" y="46" fill="#F7BF13" width="2.4" height="7.7"/>
		<rect id="connector6pin" x="35.5" y="46" fill="#F7BF13" width="2.4" height="7.7"/>
		<rect id="connector5pin" x="31.9" y="46" fill="#F7BF13" width="2.4" height="7.7"/>
		<rect id="connector4pin" x="28.3" y="46" fill="#F7BF13" width="2.4" height="7.7"/>
		<rect id="connector3pin" x="24.7" y="46" fill="#F7BF13" width="2.4" height="7.7"/>
		<rect id="connector2pin" x="21.1" y="46" fill="#F7BF13" width="2.4" height="7.7"/>
		<rect id="connector1pin" x="17.5" y="46" fill="#F7BF13" width="2.4" height="7.7"/>
	</g>
</g>
<g id="silkscreen">
	<line fill="none" stroke="#FFFF00" x1="4.6" y1="4.8" x2="4.6" y2="4.8"/>
	<line fill="none" stroke="#FFFF00" x1="4.6" y1="12.9" x2="4.6" y2="4.8"/>
	<line fill="none" stroke="#FFFF00" x1="16.5" y1="4.8" x2="4.6" y2="4.8"/>
	<line fill="none" stroke="#FFFF00" x1="4.6" y1="24.5" x2="4.6" y2="35.8"/>
	<line fill="none" stroke="#FFFF00" x1="4.6" y1="47.8" x2="4.6" y2="49.8"/>
	<line fill="none" stroke="#FFFF00" x1="4.6" y1="49.8" x2="16.6" y2="49.8"/>
	<line fill="none" stroke="#FFFF00" x1="90.2" y1="49.8" x2="92" y2="49.8"/>
	<line fill="none" stroke="#FFFF00" x1="92" y1="49.8" x2="92" y2="4.8"/>
	<line fill="none" stroke="#FFFF00" x1="86.9" y1="4.8" x2="92" y2="4.8"/>
</g>
</svg>
